<svg xmlns="http://www.w3.org/2000/svg" xmlns:xlink="http://www.w3.org/1999/xlink" viewBox="0 0 999 999"><defs><style>.cls-1{fill:url(#linear-gradient);}.cls-2{fill:none;stroke:#fcc0ff;stroke-linecap:round;stroke-miterlimit:10;stroke-width:12.85px;}</style><linearGradient id="linear-gradient" y1="999" x2="999" gradientUnits="userSpaceOnUse"><stop offset="0" stop-color="#f42e78"/><stop offset="1" stop-color="#c17afc"/></linearGradient></defs><title>ArtistEmpty</title><g id="Layer_2" data-name="Layer 2"><g id="ArtistEmpty"><g id="ArtistEmpty-2" data-name="ArtistEmpty"><rect class="cls-1" width="999" height="999"/><g id="Artist"><path class="cls-2" d="M560.06,538.93c-8-4.65-10-6-13.76-8.1-8.06-4.5-10.11-14.75-3.29-23.25,8-9.95,16.63-19.9,25.28-30.51,7.15-8.77,14.65-23.88,14.69-49.13,0-34.53-24.25-81.53-78.7-81.61S425.91,393.49,425.91,428c0,25.25,7.48,40.37,14.61,49.15,8.63,10.62,17.27,20.59,25.24,30.55,6.8,8.5,4.64,18.59-3.33,23.24-4.62,2.7-25.27,15.22-56.45,33.21-34.53,19.92-32.54,55.12-32.54,55.12V652.5"/><circle class="cls-2" cx="600.91" cy="607.67" r="39.52"/><line class="cls-2" x1="640.42" y1="607.34" x2="640.42" y2="496.43"/><line class="cls-2" x1="681.6" y1="523.66" x2="640.42" y2="496.43"/></g></g></g></g></svg>